<svg width="120" height="48" viewBox="0 0 120 48" fill="none" xmlns="http://www.w3.org/2000/svg">
<path d="M25.861 24.578L18.0331 21.9092L25.4447 6.80515L7.60712 23.6772L13.8819 27.0576L8.02339 41.45L25.861 24.578Z" fill="#FFC938"/>
<path d="M34.7946 32.1741C33.5295 32.1741 32.4783 32.1004 31.6411 31.9529C30.8039 31.8056 30.1434 31.5659 29.6597 31.2341C29.176 30.9024 28.8225 30.46 28.5992 29.9071C28.3759 29.3541 28.2272 28.6629 28.1527 27.8335C28.0969 27.0041 28.069 26.0181 28.069 24.8753C28.069 23.7326 28.0969 22.7557 28.1527 21.9447C28.2272 21.1153 28.3759 20.4241 28.5992 19.8712C28.8225 19.3182 29.176 18.8759 29.6597 18.5441C30.1434 18.2124 30.8039 17.9821 31.6411 17.8529C32.4783 17.7056 33.5295 17.6318 34.7946 17.6318C36.0783 17.6318 37.1387 17.7056 37.9759 17.8529C38.8132 17.9821 39.4737 18.2124 39.9573 18.5441C40.4411 18.8759 40.7945 19.3182 41.0178 19.8712C41.2411 20.4241 41.3806 21.1153 41.4364 21.9447C41.5109 22.7557 41.548 23.7326 41.548 24.8753C41.548 26.0181 41.5109 27.0041 41.4364 27.8335C41.3806 28.6629 41.2411 29.3541 41.0178 29.9071C40.7945 30.46 40.4411 30.9024 39.9573 31.2341C39.4737 31.5659 38.8132 31.8056 37.9759 31.9529C37.1387 32.1004 36.0783 32.1741 34.7946 32.1741ZM34.7946 28.8012C35.3527 28.8012 35.79 28.7644 36.1062 28.6906C36.4225 28.6169 36.6458 28.451 36.7759 28.1929C36.9063 27.935 36.9806 27.5387 36.9992 27.0041C37.0365 26.4697 37.055 25.76 37.055 24.8753C37.055 23.9906 37.0365 23.2903 36.9992 22.7741C36.9806 22.2581 36.9063 21.871 36.7759 21.6129C36.6458 21.355 36.4225 21.1891 36.1062 21.1153C35.79 21.0416 35.3527 21.0047 34.7946 21.0047C34.2364 21.0047 33.7992 21.0416 33.4829 21.1153C33.1853 21.1891 32.9714 21.355 32.8411 21.6129C32.7109 21.871 32.6272 22.2581 32.5899 22.7741C32.5713 23.2903 32.562 23.9906 32.562 24.8753C32.562 25.76 32.5713 26.4697 32.5899 27.0041C32.6272 27.5387 32.7109 27.935 32.8411 28.1929C32.9714 28.451 33.1853 28.6169 33.4829 28.6906C33.7992 28.7644 34.2364 28.8012 34.7946 28.8012ZM44.5409 31.9529V11.4112H49.0619V31.9529H44.5409ZM55.9864 32.1741C55.0934 32.1741 54.3399 32.0359 53.7259 31.7594C53.112 31.4829 52.6469 31.0315 52.3306 30.4047C52.033 29.7781 51.8841 28.9579 51.8841 27.9441C51.8841 26.8752 52.0051 26.0274 52.2469 25.4006C52.5074 24.7556 52.9632 24.2947 53.6143 24.0182C54.2655 23.7418 55.1865 23.6035 56.3771 23.6035C56.5445 23.6035 56.7772 23.6128 57.0748 23.6312C57.3911 23.6312 57.7446 23.6404 58.1353 23.6588C58.5259 23.6588 58.9166 23.6681 59.3073 23.6865C59.698 23.6865 60.0516 23.6957 60.3678 23.7141V23.1888C60.3678 22.6544 60.3213 22.2397 60.2283 21.9447C60.1539 21.6499 59.9958 21.4379 59.7539 21.3088C59.5306 21.1615 59.1865 21.0785 58.7213 21.06C58.2562 21.0232 57.6423 21.0047 56.8794 21.0047C56.4516 21.0047 55.9772 21.014 55.4562 21.0324C54.9539 21.0509 54.4515 21.0785 53.9492 21.1153C53.4656 21.1338 53.0562 21.1615 52.7213 21.1982V18.0741C53.4841 17.9452 54.3399 17.8438 55.2887 17.77C56.2563 17.6779 57.2701 17.6318 58.3306 17.6318C59.5214 17.6318 60.5073 17.7056 61.2887 17.8529C62.0888 18.0004 62.7307 18.2309 63.2143 18.5441C63.6981 18.8391 64.0515 19.2169 64.2748 19.6777C64.5167 20.1385 64.6748 20.6822 64.7492 21.3088C64.8237 21.9356 64.8608 22.6452 64.8608 23.4377V31.9529H60.5632L60.4515 30.2941H60.2283C59.8748 30.8471 59.4656 31.2618 59.0004 31.5382C58.5353 31.8147 58.0423 31.9899 57.5213 32.0635C57.0004 32.1374 56.4887 32.1741 55.9864 32.1741ZM58.1073 29.0224C58.4422 29.0224 58.7306 29.004 58.9725 28.9671C59.233 28.9118 59.4469 28.8288 59.6143 28.7182C59.8005 28.5893 59.9492 28.4326 60.0608 28.2482C60.1539 28.0456 60.2283 27.7968 60.2841 27.5018C60.3399 27.2069 60.3678 26.8568 60.3678 26.4512V25.9259H57.7725C57.3074 25.9259 56.9539 25.9628 56.712 26.0365C56.4702 26.0918 56.3027 26.2393 56.2097 26.4788C56.1353 26.7 56.098 27.0503 56.098 27.5294C56.098 27.935 56.1446 28.2482 56.2376 28.4694C56.3306 28.6906 56.5166 28.8381 56.7957 28.9118C57.0935 28.9856 57.5306 29.0224 58.1073 29.0224ZM68.3327 31.9529V17.8529H72.5746L72.6862 20.2582H72.9374C73.1978 19.5763 73.5234 19.0418 73.9141 18.6547C74.3234 18.2677 74.8164 18.0004 75.3932 17.8529C75.9699 17.7056 76.6397 17.6318 77.4025 17.6318V21.6959C76.2304 21.6959 75.3095 21.8434 74.6397 22.1382C73.9699 22.4332 73.4955 22.94 73.2165 23.6588C72.9374 24.3593 72.7979 25.3453 72.7979 26.6171V31.9529H68.3327ZM79.7789 31.9529V11.4112H84.2999V31.9529H79.7789ZM94.0151 32.1741C92.7501 32.1741 91.6988 32.1004 90.8616 31.9529C90.0244 31.8056 89.364 31.5659 88.8802 31.2341C88.3966 30.9024 88.043 30.46 87.8198 29.9071C87.5965 29.3541 87.4478 28.6629 87.3733 27.8335C87.3174 27.0041 87.2895 26.0181 87.2895 24.8753C87.2895 23.7326 87.3174 22.7557 87.3733 21.9447C87.4478 21.1153 87.5965 20.4241 87.8198 19.8712C88.043 19.3182 88.3966 18.8759 88.8802 18.5441C89.364 18.2124 90.0244 17.9821 90.8616 17.8529C91.6988 17.7056 92.7501 17.6318 94.0151 17.6318C95.2988 17.6318 96.3593 17.7056 97.1965 17.8529C98.0337 17.9821 98.6943 18.2124 99.1779 18.5441C99.6617 18.8759 100.015 19.3182 100.238 19.8712C100.462 20.4241 100.601 21.1153 100.657 21.9447C100.731 22.7557 100.769 23.7326 100.769 24.8753C100.769 26.0181 100.731 27.0041 100.657 27.8335C100.601 28.6629 100.462 29.3541 100.238 29.9071C100.015 30.46 99.6617 30.9024 99.1779 31.2341C98.6943 31.5659 98.0337 31.8056 97.1965 31.9529C96.3593 32.1004 95.2988 32.1741 94.0151 32.1741ZM94.0151 28.8012C94.5733 28.8012 95.0106 28.7644 95.3267 28.6906C95.6431 28.6169 95.8663 28.451 95.9965 28.1929C96.1268 27.935 96.2012 27.5387 96.2198 27.0041C96.257 26.4697 96.2756 25.76 96.2756 24.8753C96.2756 23.9906 96.257 23.2903 96.2198 22.7741C96.2012 22.2581 96.1268 21.871 95.9965 21.6129C95.8663 21.355 95.6431 21.1891 95.3267 21.1153C95.0106 21.0416 94.5733 21.0047 94.0151 21.0047C93.457 21.0047 93.0198 21.0416 92.7035 21.1153C92.4059 21.1891 92.1919 21.355 92.0616 21.6129C91.9314 21.871 91.8477 22.2581 91.8105 22.7741C91.7919 23.2903 91.7825 23.9906 91.7825 24.8753C91.7825 25.76 91.7919 26.4697 91.8105 27.0041C91.8477 27.5387 91.9314 27.935 92.0616 28.1929C92.1919 28.451 92.4059 28.6169 92.7035 28.6906C93.0198 28.7644 93.457 28.8012 94.0151 28.8012ZM109.455 37.6482C108.859 37.6482 108.236 37.6299 107.585 37.593C106.952 37.5746 106.357 37.5377 105.799 37.4824C105.241 37.4271 104.775 37.3626 104.403 37.2888V34.22C104.794 34.2385 105.213 34.2477 105.659 34.2477C106.106 34.2662 106.552 34.2753 106.999 34.2753C107.464 34.2753 107.901 34.2753 108.31 34.2753C109.222 34.2753 109.929 34.2385 110.431 34.1647C110.952 34.1094 111.333 33.9712 111.575 33.75C111.836 33.5474 111.994 33.234 112.05 32.81C112.106 32.4046 112.134 31.8516 112.134 31.1512V30.1559H111.91C111.631 30.6352 111.287 31.0038 110.878 31.2618C110.487 31.5015 110.05 31.6674 109.566 31.7594C109.082 31.8516 108.561 31.8977 108.003 31.8977C107.147 31.8977 106.422 31.7871 105.827 31.5659C105.231 31.3263 104.738 30.9485 104.348 30.4324C103.975 29.8979 103.706 29.1699 103.538 28.2482C103.371 27.3268 103.287 26.1747 103.287 24.7924C103.287 23.3916 103.371 22.2304 103.538 21.3088C103.724 20.3874 104.003 19.6593 104.375 19.1247C104.747 18.5903 105.231 18.2124 105.827 17.9912C106.422 17.7516 107.138 17.6318 107.975 17.6318C108.496 17.6318 109.008 17.6871 109.51 17.7977C110.031 17.8899 110.506 18.0741 110.934 18.3506C111.38 18.6271 111.743 19.0326 112.022 19.5671H112.245L112.357 17.8529H116.627V30.3494C116.627 31.5844 116.561 32.6626 116.431 33.5841C116.301 34.5057 116.003 35.2615 115.538 35.8512C115.092 36.4594 114.385 36.911 113.417 37.2059C112.468 37.5009 111.147 37.6482 109.455 37.6482ZM109.957 28.2759C110.496 28.2759 110.906 28.2206 111.185 28.11C111.482 27.981 111.696 27.7599 111.827 27.4465C111.957 27.1516 112.041 26.7922 112.078 26.3682C112.115 25.9259 112.134 25.4006 112.134 24.7924C112.134 24.2026 112.115 23.6865 112.078 23.2441C112.059 22.8018 111.975 22.4424 111.827 22.1659C111.696 21.8157 111.482 21.5853 111.185 21.4747C110.906 21.3457 110.496 21.2812 109.957 21.2812C109.455 21.2812 109.054 21.3181 108.757 21.3918C108.459 21.4471 108.236 21.5853 108.087 21.8065C107.957 22.0277 107.873 22.3779 107.836 22.8571C107.799 23.3363 107.78 23.9815 107.78 24.7924C107.78 25.6034 107.799 26.2393 107.836 26.7C107.873 27.1609 107.957 27.511 108.087 27.7506C108.236 27.9718 108.459 28.1193 108.757 28.1929C109.054 28.2482 109.455 28.2759 109.957 28.2759Z" fill="#72BC29"/>
</svg>
