<svg width="61" height="61" viewBox="0 0 61 61" fill="none" xmlns="http://www.w3.org/2000/svg">
<g clip-path="url(#clip0_84_338)">
<mask id="mask0_84_338" style="mask-type:luminance" maskUnits="userSpaceOnUse" x="0" y="0" width="61" height="61">
<path d="M50.8333 0H10.1667C4.55177 0 0 4.55177 0 10.1667V50.8333C0 56.4482 4.55177 61 10.1667 61H50.8333C56.4482 61 61 56.4482 61 50.8333V10.1667C61 4.55177 56.4482 0 50.8333 0Z" fill="white"/>
</mask>
<g mask="url(#mask0_84_338)">
<path d="M50.8333 0H10.1667C4.55177 0 0 4.55177 0 10.1667V50.8333C0 56.4482 4.55177 61 10.1667 61H50.8333C56.4482 61 61 56.4482 61 50.8333V10.1667C61 4.55177 56.4482 0 50.8333 0Z" fill="#FFA300"/>
<path d="M30.5 37.6167C36.3957 37.6167 41.175 32.8373 41.175 26.9417C41.175 21.046 36.3957 16.2667 30.5 16.2667C24.6044 16.2667 19.825 21.046 19.825 26.9417C19.825 32.8373 24.6044 37.6167 30.5 37.6167Z" fill="#FAFAFA"/>
<path d="M28.0713 8.02637C28.0713 8.02637 28.0713 5.59766 30.5 5.59766C32.9287 5.59766 32.9287 8.02637 32.9287 8.02637V10.455C32.9287 10.455 32.9287 12.8838 30.5 12.8838C28.0713 12.8838 28.0713 10.455 28.0713 10.455V8.02637ZM49.9296 25.0273C49.9296 25.0273 52.3583 25.0273 52.3583 27.456C52.3583 29.8847 49.9296 29.8847 49.9296 29.8847H47.5009C47.5009 29.8847 45.0722 29.8847 45.0722 27.456C45.0722 25.0273 47.5009 25.0273 47.5009 25.0273H49.9296ZM13.4991 25.0273C13.4991 25.0273 15.9278 25.0273 15.9278 27.456C15.9278 29.8847 13.4991 29.8847 13.4991 29.8847H11.0704C11.0704 29.8847 8.64167 29.8847 8.64167 27.456C8.64167 25.0273 11.0704 25.0273 11.0704 25.0273H13.4991ZM19.7178 14.4539C19.7178 14.4539 21.4348 16.171 19.7178 17.8881C18.0007 19.6052 16.2836 17.8881 16.2836 17.8881L14.5653 16.1722C14.5653 16.1722 12.8482 14.4551 14.5653 12.7368C16.2836 11.0197 18.0007 12.7368 18.0007 12.7368L19.7178 14.4539ZM44.7176 17.8881C44.7176 17.8881 43.0005 19.6052 41.2834 17.8881C39.5663 16.171 41.2834 14.4539 41.2834 14.4539L43.0005 12.7368C43.0005 12.7368 44.7176 11.0197 46.4347 12.7368C48.1518 14.4539 46.4347 16.171 46.4347 16.171L44.7176 17.8881Z" fill="#FAFAFA"/>
<path d="M61 38.125H0V62.525H61V38.125Z" fill="#3FB6FF"/>
<path d="M28.4667 32.025V62.525H33.0417V32.025H28.4667Z" fill="#FAFAFA"/>
<path d="M61 35.075H0V39.65H61V35.075Z" fill="#FAFAFA"/>
</g>
</g>
<defs>
<clipPath id="clip0_84_338">
<rect width="61" height="61" fill="white"/>
</clipPath>
</defs>
</svg>
